<?xml version="1.0" encoding="UTF-8"?>
<svg id="Layer_1" xmlns="http://www.w3.org/2000/svg" version="1.1" viewBox="0 0 730.9 238">
  <!-- Generator: Adobe Illustrator 29.6.0, SVG Export Plug-In . SVG Version: 2.1.1 Build 207)  -->
  <defs>
    <style>
      .st0 {
        fill: #1c1408;
      }

      .st1 {
        fill: #ed8e10;
      }

      .st2 {
        fill: #fcfcfc;
      }

      .st3 {
        fill: #2a2011;
      }

      .st4 {
        fill: #d47109;
      }

      .st5 {
        fill: #131313;
      }

      .st6 {
        fill: #090909;
      }

      .st7 {
        fill: #f2f2f2;
      }

      .st8 {
        fill: #994600;
      }

      .st9 {
        fill: #6a3002;
      }

      .st10 {
        fill: #eebd70;
      }

      .st11 {
        fill: #040401;
      }

      .st12 {
        fill: #140901;
      }

      .st13 {
        fill: #f5f5f5;
      }

      .st14 {
        fill: #161616;
      }
    </style>
  </defs>
  <rect class="st3" x="136" y="1" width="1" height="1"/>
  <rect class="st3" x="76" y="1" width="1" height="1"/>
  <g>
    <path class="st1" d="M91,159c0,2.7,0,5.3,0,8,7.7,0,15.3,0,23,0s15.3,0,23,0h8c0,1.3.2,6.8,0,7-.4.4-7.6-.4-8,0s0,6.5,0,8c-17.6.4-35.4,0-53,0,0,1.7-.6,6.3.6,7.1,4.7,1.5,9.6.8,14.4.9,1.1,4.2-2.5,2.6-3.5,3.9-3.3,4.2,3.2,2.7,3.6,3.1.7.6-1.2,10,.9,11.6,4.3,3.1,2.7-3.2,3-3.6s3.1.2,4,0c1.5-5.4-2.9-3.4-4-5.5s3.1-.4,4-4c1.2-5-5.3.2-4-5.5,11.3.2,22.7-.1,34,0,0-2.7,0-5.3,0-8,1.5,0,7.7.3,8,0,.4-.4-.4-6.6,0-7s12.8,0,15,0c0,2.3,0,4.7,0,7,5,0,10,0,15,0,0,2.3,0,4.7,0,7,5,0,10-.1,15,0,.1,2.7,0,5.3,0,8,2.7,0,5.4-.1,8,0,0,2.3,0,4.7,0,7-6.3-1.4-3.1,3.1-4,4s-4.9-2-4,2.5,3.6,1.8,4,3c1.7,3.9-3.5,2-4,2.5s-.1,3.9,0,4c.4.4,3.1-.5,3.9.1s-.2,5,4.1,3.9v14h-11c-.8-8,3.9-17.2-8-15v15s-53,0-53,0c-.7-6.2,5.7.3,4-7-6.5,1.3-3.1-3.1-4-4-6.5-1.2-2.9,2.8-4.1,4s-2.8-.4-2.9.5c-1.1,6,3.9,1.1,3,6.5h-53l-4-3c-2.4-6.3,6.1-2.2,4-6.5s-3.5-1.2-3.9-1.6c-.8-.9.6-3.6-.6-3.9-5.9-1.1-2.5,2.8-3.6,4s-2.4-.2-2.8.2-.3,3.5,0,3.8,4.4-.9,2.9,2.6-5.2.2-4,4.5h-3v-7s-8,0-8,0c-.2-7.5-2.5-2.5-4-4-2.6-2.6,3.7-3.4,4-4.5,1.1-3.6-2.9-2.8-3.8-3.8s.2-2.5-.7-2.8c-4.6-1.4-3.1,2.2-3.7,2.8s-2.7-.3-2.9.7c-1.3,6.4,2.6,4,3.1,4.5,2.6,2.6-3.1,3.4-3.5,3.9-3.3,4.2,3.2,2.7,3.6,3.1s-.2,3.1,0,4c5.8,1.6,2.7-3.7,7-4v7s-22,0-22,0v-26c0-7.7,0-15.3,0-23s0-4.7,0-7c5-.1,10-.1,15,0s2.7,0,4,0,3.9-.2,4,0c1.4,1.5-3.7,4.6,5.5,4,2.8-.2,1-2.5,1.5-4,5.3.1,10.7,0,16,0,5,0,10,0,15,0,0-2.3,0-4.7,0-7-2.7,0-5.3,0-8,0,0-5.3,0-10.7,0-16h15ZM156,182c-6.5-1.2-2.9,2.8-4.1,4s-2.8-.4-2.9.5c-1,5.4,2.5,3,3,3.5s.1,2.9,0,3c-.6.6-4-1.8-3,3.5s2.5.1,2.9.5c1.2,1.2-2.4,5.2,4.1,4,.9-.9-2.4-5.3,4-4,1.4-6.4-3.1-3.1-4-4s-.1-2.9,0-3c.9-.9,5.4,2.4,4-4-6.5,1.3-3.1-3.1-4-4ZM35.3,192.8c-.9-.8-.2-4.9-3.8-3.8s-1.1,3.2-1.8,3.8-2.5-.2-2.8.7c-1.5,4.9,2.7,3.2,3,3.5s.1,2.9,0,3c-.5.5-4.3-2-3.1,4.5s2.6.2,3,.6c.6.6-.3,3.6,0,4s4.8.2,5,0c.3-.4-.5-3.1.1-3.9s3.4-.2,3.9-1.6c1.2-3.8-3.7-3.2-4-3.5-2.4-2.7,2.9-3.2,3-3.5,1.4-4.5-2-3-2.8-3.7ZM65,193h-4c-.9.9,2.4,5.3-4,4-1.4,6.4,3.1,3.1,4,4s.1,2.9,0,3c-.9.9-5.4-2.4-4,4,6.5-1.3,3.1,3.1,4,4h4c-1.3-6.5,3.1-3.1,4-4,2.6-2.6-3.9-4.2-4-4.5-1.8-4.5,6.3,0,4-6.5-6.5,1.3-3.1-3.1-4-4ZM176,193h-5c-.3,1.5.5,6.3-.1,6.9s-4.1-1.8-3,4.5,4.7-.7,3.1,4.5c5.4,1.3,4.1-2.7,5.3-3.8s2.5.3,2.8-.8c1.7-5.8-3-4.1-3.1-5-.3-1.4.5-6.1,0-6.5ZM125.9,197.1c-.3-.3-2.7-.3-3.4-.2s-.1,2.3-.7,2.8-2.7-.3-2.9.7c-1.3,6.4,2.6,4,3.1,4.5s.1,2.9,0,3c-.6.6-4-1.8-3,3.5s2.5.1,2.9.5c1.2,1.2-2.4,5.2,4.1,4,.9-.9-2.4-5.3,4-4,1.4-6.4-3.1-3.1-4-4s-.1-2.9,0-3c.4-.3,3.7.3,4,0s.2-4.8,0-5c-.4-.4-3.3.5-4,0s.2-2.4-.2-2.8ZM84,204h-4c-.9.9,2.4,5.3-4,4-1.4,6.4,3.1,3.1,4,4s.1,3.9,0,4c-.5.4-5.9-1.3-4,2.5s3.2,1.1,3.8,1.8-.2,2.5.7,2.8c4.7,1.5,3.1-2.5,3.6-2.9s3.6.3,4-.1.1-3.8,0-4c-.3-.3-3.7.3-4,0s-.1-3.9,0-4c.9-.9,5.4,2.4,4-4-6.5,1.3-3.1-3.1-4-4ZM148,212c-.2-.1,1.3-1.8.6-3s-3.2-1.4-3.6-1c-.9.9,2.5,5.3-4,4-1.4,6.4,3.1,3.1,4,4,2.8,2.8-6.6,3.9-4,8,6.5-1.3,3.1,3.1,4,4,2.5,2.5,4-3.6,4.3-3.8.6-.5,2.5.2,2.8-.7,1.5-4.8-2.9-3.1-3.1-4-1-5.3,2.8-2.8,3.1-4,1.1-5.8-2.8-2.6-4-3.5ZM106.9,216.2c-3.3-3.1-3.9,2.3-4.1,2.6-.4.5-7.1,1.6-2.7,4.7s5.4,1.1,2.9,3.5-5.7-1.9-4.1,3.5,2.6.3,3.6,1.6-1,3.9,4.5,3c-1.3-6.5,3.1-3.1,4-4,2.6-2.6-3.9-4.2-4-4.5-1.6-3.8,5.4-1.7,4-6s-3.2-1.1-3.8-1.8,0-2.3-.3-2.6ZM172,216c-.2-.2-4.8-.2-5,0-.4.4.5,3.3,0,4s-2.8-.4-2.9.5c-1,5.4,2.5,3,3,3.5s.1,2.9,0,3c-.6.6-4-1.8-3,3.5s2.5.1,2.9.5c.6.6-.3,3.6,0,4s4.8.2,5,0c.3-.4-.4-3.7,0-4s3.7.4,4,0,.1-3.9,0-4c-.3-.3-3.7.3-4,0-2.6-2.5,3.1-3.4,3.6-3.9,3.3-4.2-3.2-2.7-3.6-3.1s.4-3.7,0-4Z"/>
    <path class="st4" d="M15,189c2.7,0,5.3,0,8,0,0,7.6,0,15.3,0,23-4.5,1.6-2.3-5.4-6.5-4s-1.1,3.2-1.8,3.8-2.5-.2-2.8.7c-1.5,4.8,2.9,3.1,3.1,4,1,5.4-2.7,2.8-3,4-1,4,2.4,1.9,2.9,2.5s-.3,3.6,0,4,4.8.2,5,0c.7-.7-2-5.2,3-4v15H8c.3-13.6-.4-27.4,0-41,2.3,0,4.7,0,7,0v-6.4s-7-.6-7-.6c1.4-1.7,4.8-1,7-1Z"/>
    <path class="st12" d="M198,197c2.3,0,4.7,0,7,0v41h-7v-14c0-6.7,0-13.3,0-20s0-4.7,0-7Z"/>
    <path class="st12" d="M8,190l7,.6v6.4c-2.3,0-4.7,0-7,0-.4,13.6.3,27.4,0,41H1v-41c2.3,0,4.7,0,7,0,0-2.3,0-4.7,0-7Z"/>
    <path class="st9" d="M45,238v-7c-4.3.3-1.2,5.6-7,4-.2-.9.3-3.7,0-4s-6.8,1.2-3.6-3.1,6.1-1.4,3.5-3.9-4.3,1.9-3.1-4.5,2.3-.2,2.9-.7-.9-4.3,3.7-2.8.2,2.2.7,2.8c.8.9,4.9.2,3.8,3.8s-6.6,1.9-4,4.5,3.8-3.5,4,4,0,4.7,0,7h-1Z"/>
    <path class="st0" d="M187,238h-8v-15c11.9-2.2,7.2,7,8,15Z"/>
    <path class="st10" d="M57,238c-1.2-4.3,3.1-2.5,4-4.5,1.6-3.4-2.5-2.2-2.9-2.6s-.3-3.5,0-3.8,2.4.2,2.8-.2c1.1-1.2-2.3-5,3.6-4s-.1,3,.6,3.9,3.1,0,3.9,1.6c2.1,4.3-6.4.2-4,6.5l4,3h-12Z"/>
    <path class="st10" d="M122,238c.9-5.4-4.1-.5-3-6.5s2.5-.1,2.9-.5c1.2-1.2-2.4-5.2,4.1-4,.9.9-2.4,5.3,4,4,1.7,7.3-4.7.8-4,7h-4Z"/>
    <path class="st0" d="M46,231h8s0,7,0,7h-8c0-2.3,0-4.7,0-7Z"/>
    <rect class="st3" y="197" width="1" height="41"/>
    <path class="st3" d="M137,8c0,2.7,0,5.3,0,8,5,0,10-.1,15,0,0,2.3,0,4.7,0,7h8c0,.3,0,.7,0,1,0,2.3,0,4.7,0,7,2.3,0,4.7,0,7,0,.1,2.3-.1,4.7,0,7-25.3-.2-50.7.2-76,0-2.3,0-4.7,0-7,0s-7.7.3-8,0c-.4-.4.4-6.6,0-7s-6.6.4-7,0,.4-12.7,0-15c2.3,0,4.7,0,7,0,0-2.7,0-5.3,0-8,20.3-.2,40.7-.2,61,0Z"/>
    <path class="st11" d="M175,68c1.6.1,5.2,2,8,1v21.4c-.1,1.1-6.4.5-8,.6,0,2.7,0,5.3,0,8h-23c0-2.7,0-5.3,0-8,7.6,0,15.4.2,23,0,0-5,0-10,0-15-2.7,0-5.3,0-8,0s-4.7,0-7,0-5.3,0-8,0c0,5,0,10,0,15h-7c0-2.3,0-4.7,0-7h-7.4c-1.4.2,0,6.5-.6,7s-6.5,0-8,0c0-2.3,0-4.7,0-7-2.3,0-4.7,0-7,0v-8c-2.7,0-5.3,0-8,0-5-.1-10,0-15,0v15c10-.2,20,.2,30,0,0,2.7,0,5.3,0,8-8.7-1.2-21.3,1.5-29.4,0s-.1-3.5-.6-4-7.6.4-8,0,0-3.1,0-4c-.3-4.7-.1-10.2,0-15s0-4.7,0-7h37.4c1.3.2.2,7,.6,7h16c.2-1.4-.3-6.7,0-7,.7-.7,16.7,0,19.6,0s2.9-1,3.4-1c2.3,0,4.7-.2,7,0Z"/>
    <path class="st12" d="M91,137c0,2.3,0,4.7,0,7,2.7,0,5.3,0,8,0s4.7,0,7,0v8c-5,0-10,0-15,0,0-2.7,0-5.3,0-8-1.5,0-6.9.5-7-.6v-6.4c2.3,0,4.7,0,7,0Z"/>
    <path class="st12" d="M167,129c0,5,0,10,0,15-2.3,0-4.7,0-7,0,0,2.7,0,5.3,0,8-2.7,0-5.3,0-8,0,0,2.3-.5,14.5,0,15s7.6-.4,8,0,0,6.5,0,8c5,0,10,0,15,0,0,2.3,0,4.7,0,7,5,0,10,0,15,0,0,2.3,0,4.7,0,7-5-.1-10,0-15,0,0-2.3,0-4.7,0-7-5,0-10,0-15,0,0-2.3,0-4.7,0-7-2.2,0-14.5-.5-15,0s.4,6.6,0,7-6.5,0-8,0c0-1.5-.3-7.7,0-8,.4-.4,7.6.4,8,0s0-5.7,0-7c0-1.9.5-5.8-.4-7.1s-5.5-.9-7.6-.9c-4.1-.1-18.6-.8-21.4.1s-1.4,5.6-1.6,7.9c-7.7,0-15.3,0-23,0,0-2.7,0-5.3,0-8h-15c0-2.3,0-4.7,0-7-2.3,0-4.7,0-7,0,0-2.7,0-5.3,0-8h7c0,2.7,0,5.3,0,8,5,.1,10,0,15,0,0,2.3,0,4.7,0,7,2.3,0,15.4.6,16,0s-.4-6.6,0-7,5.7,0,7,0c12.6-.4,25.4.3,38,0,0-2.7,0-5.3,0-8,2.7,0,5.3,0,8,0,.1-5,0-10,0-15,2.3,0,4.7,0,7,0Z"/>
    <path class="st12" d="M136,2h1c0,2,0,4,0,6,5,0,10,0,15,0,0,2.7-.1,5.4,0,8,2.7,0,5.3,0,8,0,0,2.3,0,4.7,0,7h-8c0-2.3,0-4.7,0-7-5-.1-10,0-15,0,0-2.7,0-5.3,0-8-20.3-.2-40.7-.2-61,0,0,2.7,0,5.3,0,8-2.3,0-4.7,0-7,0s-5.3,0-8,0c0,2.3,0,4.7,0,7h-8c0-2.3,0-4.7,0-7,2.7,0,5.3,0,8,0,.1-2.7,0-5.4,0-8,5,0,10,0,15,0,0-2,0-4,0-6h60Z"/>
    <path class="st12" d="M160,24h7c0,2.3-.1,4.7,0,7,2.7.1,5.3,0,8,0v37c-2.3-.2-4.7,0-7,0-.3-8.5.4-17.1,0-25.6s-1-3.6-1-4.4c-.1-2.3.1-4.7,0-7-2.3,0-4.7,0-7,0,0-2.3,0-4.7,0-7Z"/>
    <path class="st12" d="M175,99c0,10,0,20,0,30-2,0-4,0-6,0l-2-1c0-9.6,0-19.3,0-29h8Z"/>
    <path class="st0" d="M190,189c2.7,0,5.3,0,8,0,0,2.7,0,5.3,0,8-2.7-.1-5.3,0-8,0,0-2.7.1-5.4,0-8Z"/>
    <path class="st11" d="M169,129c-.7,0-1.3,0-2,0,0-.3,0-.7,0-1l2,1Z"/>
    <path class="st8" d="M61,84c2.2,0,14.5-.5,15,0s-.4,6.6,0,7,12.7-.4,15,0c0,1-.2,3.8,0,4,.4.4,7.6-.4,8,0s-.8,3.8.6,4c8.2,1.5,20.7-1.2,29.4,0,0-2.7,0-5.3,0-8,1.5,0,7.7.3,8,0,.6-.5-.9-6.8.6-7h7.4c0,2.3,0,4.7,0,7,.1,4.6,0,9.4,0,14s0,.7,0,1c-8,.2-18.5-3.4-16,8h16c0-2.7,0-5.3,0-8,.3,0,.7,0,1,0,2,0,4,0,6,0,0-2.3,0-4.7,0-7h15c0,9.7,0,19.3,0,29s0,.7,0,1c-2.3,0-4.7,0-7,0,0,5,.1,10,0,15-2.7,0-5.3,0-8,0,0-2.3,0-4.7,0-7h-23v7c7.7,0,15.4,0,23,0,0,2.7,0,5.3,0,8-12.6.3-25.4-.4-38,0v-8c-2.7,0-5.3,0-8,0s-4.7,0-7,0v-7c-2.7,0-5.3,0-8,0-.2-7.7,2.3-8.8-7-8v-15c-1.5-.3-7.7.4-8,0-.6-.6.9-6.8-.6-7h-6.4c0,2.3,0,4.7,0,7-5,0-10,.1-15,0s-.7,0-1,0l1-30c2.3,0,4.7,0,7,0ZM69,91h-8v15h8v-15ZM152,122h-30v7h30v-7Z"/>
    <path class="st0" d="M69,16c.4,2.3-.5,14.5,0,15s6.6-.4,7,0-.4,6.6,0,7,6.5,0,8,0v23c-2.7.1-5.3,0-8,0v15c-5,0-10,0-15,0v8c-2.3,0-4.7,0-7,0s-5.3,0-8,0-5.3,0-8,0c1.2-13.4-1.6-29.5,0-42.5s3.9-3.3,8-3.5,4.7,0,7,0c0-4.7-.1-9.4,0-14s0-.7,0-1h8c0-2.3,0-4.7,0-7,2.7,0,5.3,0,8,0Z"/>
    <path class="st0" d="M61,167c2.7,0,5.3,0,8,0v8c-2.7,0-5.4,0-8,0,0-2.7,0-5.3,0-8Z"/>
    <path class="st0" d="M61,137c0,10-.2,20,0,30-5-.1-10-.1-15,0,0,2.7,0,5.3,0,8-2.7,0-5.3,0-8,0,.2-2.7,1.3-5.2,1-8,2.3,0,4.7,0,7,0,0-1.5-.3-7.7,0-8,.4-.4,6.6.4,7,0,.8-.8-.6-19,0-22,2.7,0,5.3,0,8,0Z"/>
    <path class="st12" d="M69,114c-.2,7.6,0,15.4,0,23-2.7,0-5.3,0-8,0,0-2.4.6-15.4,0-16s-5.6.3-7,0v-7c5,.1,10,0,15,0Z"/>
    <path class="st12" d="M54,84l-1,30c-2.3,0-4.7,0-7,0v-30c2.7,0,5.3,0,8,0Z"/>
    <path class="st12" d="M38,175c-.2,2.3.1,4.7,0,7-5-.1-10-.1-15,0,0,2.3,0,4.7,0,7-2.7,0-5.3,0-8,0v-7c2.7,0,5.3,0,8,0,0-2.3,0-4.7,0-7,5,0,10,0,15,0Z"/>
    <path class="st12" d="M53,24c0,4.7,0,9.4,0,14-2.3,0-4.7,0-7,0v-14s7,0,7,0Z"/>
    <path class="st0" d="M137,182c0,2.7,0,5.3,0,8-11.3-.1-22.7.2-34,0s-2.7,0-4,0c-4.8-.1-9.7.6-14.4-.9-1.2-.8-.6-5.4-.6-7.1,17.6,0,35.4.4,53,0Z"/>
    <path class="st4" d="M69,137c0,2.3,0,4.7,0,7s0,5.3,0,8c2.3,0,4.7,0,7,0,0,2.3,0,4.7,0,7,0,5.3,0,10.7,0,16-2.3,0-4.7,0-7,0,0,2.3,0,4.7,0,7-5.3,0-10.7.1-16,0s-2.9.1-3,0-.1-3.9,0-4c.8-.8,5.3,2,4-3-2.7,0-5.3,0-8,0-.2,5.8-2.6,1.7-4,3v4c-1.3,0-2.7,0-4,0,.1-2.3-.2-4.7,0-7,2.7,0,5.3,0,8,0,0-2.7,0-5.3,0-8,5-.1,10-.1,15,0,0,2.7,0,5.3,0,8,2.7,0,5.3,0,8,0v-8c-2.7,0-5.3,0-8,0-.2-10,0-20,0-30,2.7,0,5.3,0,8,0Z"/>
    <path class="st10" d="M35.3,192.8c.7.7,4.2-.8,2.8,3.7s-5.4.7-3,3.5,5.2-.2,4,3.5-3.5,1.2-3.9,1.6c-.7.8.2,3.5-.1,3.9s-4.8.2-5,0c-.4-.4.5-3.3,0-4s-2.8.5-3-.6c-1.2-6.5,2.6-4,3.1-4.5s.1-2.9,0-3c-.3-.3-4.6,1.4-3-3.5s2.2-.2,2.8-.7.4-3.3,1.8-3.8c3.5-1.1,2.9,3,3.8,3.8Z"/>
    <path class="st10" d="M172,216c.3.4-.4,3.7,0,4s6.8-1.1,3.6,3.1-6.1,1.4-3.6,3.9,3.7-.3,4,0,.1,3.9,0,4c-.4.3-3.7-.3-4,0s.4,3.7,0,4-4.8.2-5,0c-.4-.4.5-3.3,0-4s-2.8.4-2.9-.5c-1-5.4,2.5-3,3-3.5s.1-2.9,0-3c-.6-.6-4,1.8-3-3.5s2.5-.1,2.9-.5c.6-.6-.3-3.6,0-4s4.8-.2,5,0Z"/>
    <path class="st9" d="M106.9,216.2c.3.3-.2,2,.3,2.6s3.3.4,3.8,1.8c1.4,4.3-5.6,2.2-4,6s6.6,1.9,4,4.5-5.3-2.4-4,4c-5.5.9-3.2-1.3-4.5-3s-3.3-.7-3.6-1.6c-1.6-5.3,3.4-2.8,4.1-3.5,2.5-2.4-2.4-3.2-2.9-3.5-4.3-3.1,2.3-4.3,2.7-4.7s.8-5.6,4.1-2.6Z"/>
    <path class="st9" d="M65,193c.9.9-2.4,5.3,4,4,2.2,6.5-5.9,2-4,6.5s6.6,1.9,4,4.5-5.3-2.4-4,4h-4c-.9-.9,2.4-5.3-4-4-1.4-6.4,3.1-3.1,4-4s.1-2.9,0-3c-.9-.9-5.4,2.4-4-4,6.5,1.3,3.1-3.1,4-4h4Z"/>
    <path class="st10" d="M125.9,197.1c.4.3-.2,2.4.2,2.8.6.6,3.6-.3,4,0s.2,4.8,0,5c-.4.3-3.7-.4-4,0s-.1,2.9,0,3c.9.9,5.4-2.4,4,4-6.5-1.3-3.1,3.1-4,4-6.5,1.2-2.9-2.8-4.1-4s-2.8.4-2.9-.5c-1-5.4,2.5-3,3-3.5s.1-2.9,0-3c-.5-.5-4.3,1.9-3.1-4.5s2.3-.2,2.9-.7-.2-2.7.7-2.8,3.1,0,3.4.2Z"/>
    <path class="st10" d="M84,204c.9.9-2.4,5.3,4,4,1.4,6.4-3.1,3.1-4,4s-.1,3.9,0,4c.3.3,3.7-.3,4,0s.1,3.9,0,4c-.4.4-3.3-.5-4,.1s1.2,4.4-3.6,2.9-.2-2.2-.7-2.8-3.1-.3-3.8-1.8c-1.9-3.8,3.6-2.1,4-2.5s.1-3.9,0-4c-.9-.9-5.4,2.4-4-4,6.5,1.3,3.1-3.1,4-4h4Z"/>
    <path class="st9" d="M148,212c1.3,1,5.1-2.3,4,3.5s-4-1.3-3.1,4,4.6-.8,3.1,4-2.2.2-2.8.7-1.8,6.3-4.3,3.8,2.4-5.3-4-4c-2.6-4.1,6.8-5.2,4-8s-5.4,2.4-4-4c6.5,1.3,3.1-3.1,4-4s2.9,0,3.6,1-.8,2.9-.6,3Z"/>
    <path class="st9" d="M156,182c.9.9-2.4,5.3,4,4,1.4,6.4-3.1,3.1-4,4s-.1,2.9,0,3c.9.9,5.4-2.4,4,4-6.5-1.3-3.1,3.1-4,4-6.5,1.2-2.9-2.8-4.1-4s-2.8.4-2.9-.5c-1-5.4,2.5-3,3-3.5s.1-2.9,0-3c-.6-.6-4,1.8-3-3.5s2.5-.1,2.9-.5c1.2-1.2-2.4-5.2,4.1-4Z"/>
    <path class="st3" d="M23,223c-5-1.2-2.2,3.3-3,4s-4.8.2-5,0c-.4-.4.5-3.2,0-4s-3.9,1.4-2.9-2.5,4,1.4,3-4-4.5.8-3.1-4,2.2-.2,2.8-.7.4-3.3,1.8-3.8c4.2-1.4,2,5.6,6.5,4v4c-6.2-1.3-5.3,4.3,0,4v3Z"/>
    <path class="st9" d="M103,190c-1.3,5.8,5.3.5,4,5.5s-5.2,1.7-4,4,5.5.2,4,5.5c-.9.2-3.7-.3-4,0s1.2,6.7-3,3.6-.3-10.9-.9-11.6-6.8,1.2-3.6-3.1,4.7.3,3.5-3.9c1.3,0,2.7,0,4,0Z"/>
    <path class="st9" d="M198,204c0,6.7,0,13.3,0,20-4.3,1.1-3.5-3.3-4.1-3.9s-3.5.2-3.9-.1-.1-3.8,0-4c.5-.5,5.7,1.4,4-2.5s-3.4.4-4-3,3.2-1.7,4-2.5-2.3-5.4,4-4Z"/>
    <path class="st10" d="M176,193c.4.4-.3,5.1,0,6.5s4.8-.8,3.1,5-2.2.2-2.8.8c-1.2,1.1.1,5.1-5.3,3.8,1.6-5.3-2.9-3.6-3.1-4.5-1.2-6.3,2.3-3.9,3-4.5s-.2-5.4.1-6.9h5Z"/>
    <path class="st12" d="M76,175c2.7,0,5.3,0,8,0,0,2.3,0,4.7,0,7-5,0-10,0-15,0,0-2.3,0-4.7,0-7,2.3,0,4.7,0,7,0Z"/>
    <path class="st9" d="M46,175c2.7,0,5.3,0,8,0,1.3,5-3.2,2.2-4,3s-.1,3.8,0,4,2.2,0,3,0c-.4,1.5,1.4,3.8-1.5,4-9.2.6-4.1-2.5-5.5-4s-3.1,0-4,0v-4c1.4-1.3,3.8,2.8,4-3Z"/>
    <path class="st4" d="M23,216v4c-5.3.3-6.2-5.3,0-4Z"/>
    <rect class="st11" x="77" y="1" width="59" height="1"/>
    <path class="st8" d="M167,38c0,.9,1,2.5,1,4.4.3,8.5-.3,17.1,0,25.6-.5,0-2,1-3.4,1-2.9,0-18.9-.7-19.6,0s.2,5.6,0,7h-16c-.4,0,.7-6.8-.6-7h-37.4c0,2.3,0,4.7,0,7h-7v-15c2.3,0,4.7,0,7,0v-23c25.3.2,50.7-.2,76,0Z"/>
    <path class="st9" d="M91,38v23c-2.3,0-4.7,0-7,0v15c-2.7,0-5.3,0-8,0v-15c2.6,0,5.3.1,8,0v-23c2.3,0,4.7,0,7,0Z"/>
    <path class="st12" d="M76,76c2.7,0,5.3,0,8,0h7c-.1,4.8-.3,10.3,0,15-2.3-.4-14.5.5-15,0s.4-6.6,0-7-12.8,0-15,0v-8c5,0,10,0,15,0Z"/>
    <path class="st12" d="M114,76v8c2.6,0,5.3-.1,8,0s4.7,0,7,0c0,2.3,0,4.7,0,7-10,.2-20-.2-30,0v-15c5,0,10-.1,15,0Z"/>
    <path class="st12" d="M152,91c0,2.7,0,5.3,0,8s0,4.7,0,7c-2,0-4,0-6,0l-1-1c0-4.6.1-9.4,0-14h7Z"/>
    <path class="st12" d="M160,76v8s6.4,0,6.4,0l.6-8c2.7,0,5.3,0,8,0,0,5,0,10,0,15-7.6.2-15.4,0-23,0,0-5,0-10,0-15,2.7,0,5.3,0,8,0Z"/>
    <path class="st3" d="M114,76c2.7,0,5.3,0,8,0v8c-2.7-.1-5.4,0-8,0v-8Z"/>
    <path class="st3" d="M167,76l-.6,8h-6.4s0-8,0-8c2.3,0,4.7,0,7,0Z"/>
    <path class="st9" d="M137,159v8c-7.7,0-15.3,0-23,0,.2-2.3-1-7,1.6-7.9s17.3-.3,21.4-.1Z"/>
    <path class="st9" d="M106,144c2.7,0,5.3,0,8,0v8c-1.3,0-6.8-.2-7,0-.4.4.4,6.6,0,7s-13.7,0-16,0c0-2.3,0-4.7,0-7,5,0,10,0,15,0v-8Z"/>
    <path class="st9" d="M69,114c0-2.3,0-4.7,0-7h6.4c1.5.2,0,6.5.6,7s6.5-.3,8,0v15c9.3-.8,6.8.3,7,8,2.7,0,5.3,0,8,0v7c-2.7,0-5.3,0-8,0,0-2.3,0-4.7,0-7-2.3,0-4.7,0-7,0v6.4c.1,1.1,5.5.5,7,.6,0,2.7,0,5.3,0,8-5,0-10,.1-15,0,0-2.7,0-5.3,0-8h-7c0-2.3,0-4.7,0-7,0-7.6-.2-15.4,0-23Z"/>
    <path class="st4" d="M145,167h-8v-8c2,0,6.5-.6,7.6.9s.4,5.2.4,7.1Z"/>
    <rect class="st9" x="122" y="122" width="30" height="7"/>
    <path class="st9" d="M152,144c-7.7,0-15.3,0-23,0v-7h23c0,2.3,0,4.7,0,7Z"/>
    <path class="st12" d="M145,106c0,2.7,0,5.3,0,8h-16c-2.5-11.4,7.9-7.8,16-8Z"/>
    <rect class="st12" x="61" y="91" width="8" height="15"/>
    <path class="st11" d="M146,106c-.3,0-.7,0-1,0,0-.3,0-.7,0-1l1,1Z"/>
  </g>
  <g>
    <g>
      <path class="st5" d="M476.9,44c9-2.3,18.7-1.9,23.4,7.1s1.5,7.2,4.1,9.9c4.7-14.3,16.3-19.7,31-18,14.2,1.6,20.3,18,20.5,30.5,0,2.4-2.1,20.1-2.6,21.5-1.7,4.3-11.8,12.7-16.2,13.8s-14.3.6-17.2-.3c-5.2-1.7-14.9-10.4-15.1-16.4-1.6-.3-.9,1.3-1,2.5-.2,3.4,1.2,11.4-2,13s-18.5.9-20,0-2-2.7-2-3v-35.5h-3v36.5c0,.2-2.5,2.8-3,3-3,1.4-5.5-.6-8.5-.6-5.6,0-11.3.3-17,.1-13.2-.4-28.7,2.3-33.9-13.2s-2.4-8.8-2.6-10.4c-.3-2.5.5-13.9,0-14.4-.9-.9-7.8,2.3-9.6-2.9s-.9-17.9-.2-20.3c1.5-5.3,9.3-3.3,9.8-3.7.8-.8-2.5-12.7,4.7-14.8s15.8-.5,18.1.5c4.2,1.9,1.5,10.3,2.2,14.3,5.4.1,10.8-.6,16,1v-16.5c0-.3,2.9-3,3.7-3.3,2-.6,15.8-.9,17.5,0s2.8,1.8,2.8,2.3v17.5ZM472.9,28h-14v74.5c0,2,12.4,2.3,13.6.6,1.7-2.4-.4-28.6.5-34.5s10.8-6.8,11.9-1c1.2,6.2-1.5,32.8.5,35.5s13.6,1.9,14.4-.7c-1.1-12.5,4.7-45.7-7.9-52.8s-9.3-2.2-13.2-.4-2.6,4.8-5.7,4.8v-26ZM431.9,34h-14v15c-2.6.4-10.2-1-11.6.9-1.1,12.3-3.1,17,11.6,15.1.5,10.2-2.5,30.6,8.1,36.4s7.6,2.6,8.4,2.6h15.5v-16c-9.7-.3-16.9,2.8-18-9.5s-.5-13.5,1.5-13.5h15.5v-16h-16c-1.6-4.8-.9-10-1-15ZM520.9,81h29.5c3.5,0,0-15.6-.8-18.2-4.1-12.3-15.5-17.9-27.9-13.5-14.8,5.3-17,27.2-12.8,40.2,6.7,21.2,36.9,20.3,41-1.5-3.1.2-7.7-2.3-10.5-2s-6.1,6.5-10.8,5.8-8.2-6.2-7.7-10.8ZM453.9,68c-5.6,2.6-10.9,2.1-17,2v13h14.5c.3,0,1.4,1.4,2.5,1v-16Z"/>
      <path class="st13" d="M472.9,28v26c3.1,0,2.5-3.2,5.7-4.8s9.4-1.8,13.2.4c12.6,7.1,6.9,40.3,7.9,52.8-.9,2.6-13.4,2.1-14.4.7-1.9-2.8.7-29.4-.5-35.5-1.1-5.8-10.8-6.1-11.9,1s1.2,32-.5,34.5-13.6,1.5-13.6-.6V28h14Z"/>
      <path class="st13" d="M520.9,81c-.5,4.6,3,10.1,7.7,10.8s8.1-5.6,10.8-5.8,7.4,2.2,10.5,2c-4.2,21.9-34.3,22.8-41,1.5-4.1-13-2-35,12.8-40.2,12.5-4.4,23.8,1.1,27.9,13.5s4.3,18.2.8,18.2h-29.5ZM520.9,70h17c-.3-12.2-15.6-11.8-17,0Z"/>
      <path class="st7" d="M431.9,34c.1,5-.6,10.2,1,15h16v16h-15.5c-2.1,0-1.7,11.4-1.5,13.5,1.1,12.2,8.3,9.2,18,9.5v16h-15.5c-.8,0-7.4-2-8.4-2.6-10.6-5.8-7.5-26.2-8.1-36.4-14.6,1.9-12.7-2.7-11.6-15.1,1.4-1.9,9-.5,11.6-.9v-15h14Z"/>
      <path class="st7" d="M453.9,68v16c-1.1.4-2.2-1-2.5-1h-14.5v-13c6.1,0,11.4.7,17-2Z"/>
      <path class="st5" d="M520.9,70c1.4-11.8,16.7-12.2,17,0h-17Z"/>
    </g>
    <g>
      <path class="st3" d="M730.9,168h-1c.5-3.3.5-14.8,0-18h1v18Z"/>
      <path class="st14" d="M479.9,191c0-1.6-1-3.4-1-5.4-.2-5.6-.7-35.7,1.2-38.3s17.5-.1,21.2-.3,5.5-4.3,12.6-2.5c9.6,2.5,12.6,9.5,16.5,17.5,7.2-15.5,22.4-22.5,38.2-14.2,1.3.7,4.7,3.2,5.7,4.3s.8,3.9,2.5,3.9c-3.5-12.9,11-9,12-10s-2.2-11.3,2.4-14.1,16.6-1.5,19.3-.2c4.2,1.9,1.5,10.2,2.2,14.3,13.1-.8,18.4-1.1,17,14,2.3-1.2,2.7-4,4.5-6,4.1-4.5,12-9.2,18-10,8.9-1.2,24.9,6.3,26.6,16l1.7-11.8c.5-1.4,1.8-1.7,3-2,5.9-1.1,16.4-.3,22.8-.3s4.6,1.1,7,1.1c4.9,0,15.3-4.5,16.5,2.9s.5,14.7,0,18c-1.1,7.4-10.6.7-15,4.5s-.5,9.5-1,12.5c3.6.3,13.5-1.4,14.8,2.7s.5,16.7.1,18.8-1.7,3.5-2.5,3.5h-44c-3.3,0-2.1-13-3-13-8.6,19.4-37.1,19.4-48,2-1.4,3.2,1.2,9.5-3.2,10.8s-22.9.4-26.7-.9-5-2.9-6.4-4.6-6.2-11.7-6.2-12.8v-20.5c-3.3.6-5.7,1.4-9,0v36.5c0,3.9-17.9,2.3-21.5,2.5s-7.2,1.8-10.7,1.7c-7.5-.2-13.3-3.6-17.3-9.7-1,3.3.6,7.1-4,8s-18.2.3-19.5-.5-2-2.7-2-3v-35.5c-.6,0-2,1.3-2,1.5v33c0,5.9-15.5,5.1-19.5,4.5s-3.2-1.6-3.5-5,.2-9.4,0-14ZM608.9,136h-14v15c-15.9-2.1-11.6,3.6-12,16,2.6.4,10.2-1,11.6.9s-.8,22.6,2.7,30.3c1.7,3.8,9.4,7.8,13.2,7.8h16.5v-14.5c0-2.6-11.8-.9-14.3-1.7s-3.7-3-3.7-3.3v-19.5h15.5c2.5,0,1.7-13.6.5-16h-16v-15ZM524.9,206v-40.5c0-.4-1.6-6.2-1.9-7.1-3.9-9.7-13.8-10.6-21.6-4.4-1.4,1.2-1.3,4.6-3.5,2.5-.1-1.3.3-5.2,0-5.5-.5-.5-12.7-.3-13.6.9-2.3,3.3.7,45.1-.3,52.4.7,2.3,14.1,3.3,14.9-.9,1.6-8.6-2.3-28.4.7-35.3s11.3-2.1,11.3,2.3v35.5h14ZM574.9,206v-40.5c0-5.1-4.5-10.8-9-13-9.8-4.9-23.1-2.3-28.2,7.8-.9,1.9-2.9,4.7-1.4,6.7s10.1,3.1,10.9,3,3-8.3,11-5.9,3.8,6.1,3.7,8.8c-13.7,1-27.8-.2-28.1,17.5-.2,12,8.1,18.9,19.9,15.8s6.2-5.2,6.7-5.3c2.9-.9.9,4.4,1.5,5s11-.3,13,0ZM652.7,150.3c-25,2.3-26.2,46.1-7.3,54.8,16.4,7.5,31-3.4,32.5-20.6,1.6-17.6-4.1-36.2-25.2-34.2ZM706.4,151c-4.6-1.4-16.1,1-21.5,0v16c0,.5,10-.5,10,0v24c0,.5-10-.5-10,0v15h40c-.3-2.4,1.1-15-1.5-15h-14.5v-16.5c0-7.5,12.6-8.3,18-7.5v-16c-6.3-.2-10.9.9-15.6,5s-1.1,2.8-1.9,3c-3.2,1,.2-7-3-8ZM536.9,172c-3.4.6-4.6-1.3-7-3v10s7-7,7-7ZM627.9,186v-16c-4.3,3.2-9.8,0-15,1-1,14.7.2,16.3,15,15ZM681.9,171v15c11.9,2.2,7.2-7,8-15h-8Z"/>
      <path class="st14" d="M328,159c.2-6.2-2.1-12.2,5.5-13,5.8-.6,12.5,1.3,17,1s3.9-2.8,7-3.1c4.8-.4,13.8,4.8,16.4,8.7s.4,4.3,2.1,4.4c-2-9.3,11.3-6.3,12-7s-.2-6.2.3-8.2c1.1-4.8,7.9-13.6,12.7-15.3s24-3.1,26.5.6c4.7,7-1.4,21.2.6,28.9l2.7-9.1,11.3-.9v-17.5c0-5.7,24-4.1,24-1v57.5c0,1.3,11.3-4,12,6s.4,10.3,0,14-.6,4.5-4.5,5c-12.4,1.6-28.3-1.3-41,0-1.8,0-3.2-2.5-3.5-4-.5-2.8,0-17,1.5-19s9.3.2,11.6-1.4,1.5-13.1,0-14.1c-2.8-1.9-11.7,2.1-13.6-4.4.5,12-8.7,6.5-16.5,8.6v10.4c3.7.6,13.7-1.7,15.5,2s.9,15.5.5,18c-.6,3.7-2.1,3.7-5.4,4.1-15,1.5-31.1-.7-46.1-.9-4.5,0-18.2,2.3-21.5.3s-2-2.7-2-3v-35.5c-.6,0-2,1.3-2,1.5v35c0,3.3-15.7,2.9-18.5,2.5s-4-1-4.5-4c-1.7-11-.3-34.8,0-47ZM460.9,130h-14c.5,11.3-3.9,16.8,10.5,15,6.3-.8,2.4-9.9,3.4-15ZM423.9,131h-19.5c-.3,0-4.3,2.4-5,3-6.2,4.9-6.6,14.7-6.5,22h-12s0,15,0,15c2.1.2,12-.9,12,1.5v18.5h-12v15h42v-15h-16v-18.5c0-.1,1.4-1.5,1.5-1.5h14.5v-15h-16c-1.7-12,8.5-10,17-10v-15ZM373,206v-43.5c0-.8-4.5-8.7-5.5-9.5-6.3-5.5-15.7-2.2-20,4-2.8,1.2-.9-5.4-1.5-6s-12.7-.3-13.6.9c-2.3,3.3.7,45.1-.3,52.4,1,3.2,11.8,1,14.9,1.6v-36.5c0-.8,4.7-4.5,6.3-4.3s5.7,3.6,5.7,4.3v36.5h14ZM461.9,191v-38.5c0-.1-1.4-1.5-1.5-1.5h-25c-2,0-2.1,13.6-1.1,15.1,1.6,2.4,13.3-.3,13.6,1.5v23.4c-2.9.5-12.2-1.1-13.6.9s-.9,14.1,1.1,14.1h38.5v-15h-12ZM388,175h-10v11h10v-11Z"/>
      <path class="st5" d="M327,206c-1,6.5-14.6,3.7-20.5,4s-11.3,2.7-17.9.9-9.5-8.3-12.1-12.9c-4.4,7.5-10.4,13.9-19.8,13.6s-5.5-1.5-8.2-1.6c-4.1-.2-18.6,1.1-20.6-1.4-3.2-4.1.4-69.6-.7-79.9,1.1-6.2,22.8-4.1,22.8-1.2v18.5c2,.3,2.6-1.6,4.5-2,6.4-1.3,17.2,5.9,20.5,11.5s1.1,5.5,3.5,7.5c5-20,32.4-25.6,45-9s1.1,3.2,1.9,4.7,1.6.2,1.7.3c1.2,2,.6,43,0,47ZM246,131h-15v73.5c0,1.9,14.5,2.1,15,1.5s-.9-6,2-4-.1,1.4.7,2c15.5,10.2,25.1-6.8,26.3-20.5,1-11.5-2.5-33.4-17.5-33.5-5.5,0-7.2,3.2-11.5,5v-24ZM323,206v-41.5c0-.9-3.1-6.8-4-8-9.8-12.6-36.6-6-34.9,11.5,3.3-.5,8.6,2.7,11.3,2.1s.7-7.9,10.1-6.1c3.3.6,4.2,6.1,4.5,9-6,.5-16.1.2-21.4,3.1-15.9,8.9-5.1,43.3,18.6,26.9.8-.6.4-1.8,1.2-2,2.9-.8.8,4.4,1.5,5s11-.3,13,0ZM284,172l-5-1v8s5-7,5-7Z"/>
      <path class="st7" d="M428.9,206h-1c.4-2.5.3-16.3-.5-18-1.8-3.7-11.8-1.4-15.5-2v-10.4c7.8-2.1,17,3.4,16.5-8.6,1.8,6.5,10.8,2.5,13.6,4.4s1.5,13.1,0,14.1c-2.3,1.6-9.9-1-11.6,1.4s-2,16.2-1.5,19Z"/>
      <path class="st10" d="M328,206h-1c.6-4,1.2-45,0-47h1c-.3,12.2-1.7,36,0,47Z"/>
      <path class="st10" d="M479.9,191c.2,4.6-.3,9.4,0,14h-2c.4-3.7.3-10.1,0-14h2Z"/>
      <path class="st13" d="M652.7,150.3c21.1-2,26.8,16.6,25.2,34.2-1.5,17.2-16.2,28.1-32.5,20.6-18.9-8.7-17.7-52.4,7.3-54.8ZM661.6,167.3c-1.8-2-5.5-2.8-8.1-2.3-9.6,1.8-10.5,31.3,5.4,26.4,6.7-2.1,6.5-19.9,2.7-24.1Z"/>
      <path class="st7" d="M524.9,206h-14v-35.5c0-4.4-9.5-6.5-11.3-2.3-2.9,6.9.9,26.7-.7,35.3s-14.1,3.1-14.9.9c1-7.3-2-49.1.3-52.4s13.1-1.4,13.6-.9-.2,4.2,0,5.5c2.2,2.1,2-1.4,3.5-2.5,7.8-6.2,17.7-5.3,21.6,4.4s1.9,6.7,1.9,7.1v40.5Z"/>
      <path class="st13" d="M574.9,206c-2-.3-12.5.5-13,0s1.4-5.9-1.5-5-1.9,4.1-6.7,5.3c-11.8,3.1-20.1-3.8-19.9-15.8.3-17.7,14.4-16.5,28.1-17.5.1-2.7-.8-7.9-3.7-8.8-8-2.5-9.9,5.7-11,5.9s-10.5-2.5-10.9-3c-1.5-2,.5-4.9,1.4-6.7,5.1-10.2,18.3-12.8,28.2-7.8,4.5,2.3,9,8,9,13v40.5ZM561.9,184c-4.4,0-13.9-.9-14.8,4.7-1.5,9,18.1,6.4,14.8-4.7Z"/>
      <path class="st13" d="M608.9,136v15h16c1.2,2.4,2,16-.5,16h-15.5v19.5c0,.3,2.9,3,3.7,3.3,2.5.8,14.3-.9,14.3,1.7v14.5h-16.5c-3.9,0-11.5-3.9-13.2-7.8-3.5-7.7-1.1-28-2.7-30.3s-9-.5-11.6-.9c.4-12.4-3.9-18.1,12-16v-15h14Z"/>
      <path class="st13" d="M706.4,151c3.1,1-.2,9,3,8s.9-2.2,1.9-3c4.7-4.1,9.3-5.1,15.6-5v16c-5.4-.8-18,0-18,7.5v16.5h14.5c2.6,0,1.2,12.6,1.5,15h-40v-15c0-.5,10,.5,10,0v-24c0-.5-10,.5-10,0v-16c5.4,1,16.9-1.4,21.5,0Z"/>
      <path class="st7" d="M627.9,186c-14.8,1.3-16-.3-15-15,5.2-.9,10.7,2.2,15-1v16Z"/>
      <path class="st7" d="M681.9,171h8c-.8,7.9,3.9,17.2-8,15v-15Z"/>
      <path class="st7" d="M536.9,172l-7,7v-10c2.4,1.7,3.6,3.6,7,3Z"/>
      <path class="st13" d="M423.9,131v15c-8.5,0-18.7-2-17,10h16v15h-14.5c-.1,0-1.5,1.4-1.5,1.5v18.5h16v15h-42v-15h12v-18.5c0-2.4-9.9-1.3-12-1.5v-15h12c0-7.3.3-17.1,6.5-22s4.7-3,5-3h19.5Z"/>
      <path class="st13" d="M373,206h-14v-36.5c0-.6-4.4-4.2-5.7-4.3s-6.3,3.5-6.3,4.3v36.5c-3-.6-13.8,1.5-14.9-1.6,1-7.3-2-49.1.3-52.4s13.1-1.4,13.6-.9-1.4,7.2,1.5,6c4.4-6.2,13.8-9.5,20-4s5.5,8.7,5.5,9.5v43.5Z"/>
      <path class="st13" d="M461.9,191h12v15h-38.5c-2,0-2.1-12.6-1.1-14.1s10.7-.5,13.6-.9v-23.4c-.3-1.8-11.9.8-13.6-1.5s-1-15.1,1.1-15.1h25c.1,0,1.5,1.4,1.5,1.5v38.5Z"/>
      <path class="st7" d="M460.9,130c-1,5.1,2.9,14.3-3.4,15-14.4,1.8-10-3.8-10.5-15h14Z"/>
      <rect class="st7" x="377.9" y="175" width="10" height="11"/>
      <path class="st13" d="M246,131v24c4.4-1.8,6-5,11.5-5,15,.1,18.5,22,17.5,33.5-1.2,13.7-10.7,30.8-26.3,20.5s-.6-1.9-.7-2c-2.8-2-1.7,3.7-2,4-.5.6-15,.4-15-1.5v-73.5h15ZM257.7,190.7c3.7-3,3.9-21.6-1.3-24.6-11-6.3-11.7,13.6-10.2,20.2s7.3,7.8,11.5,4.4Z"/>
      <path class="st13" d="M323,206c-2-.3-12.5.5-13,0s1.4-5.8-1.5-5-.4,1.4-1.2,2c-23.7,16.5-34.6-18-18.6-26.9s15.3-2.6,21.4-3.1c-.3-2.9-1.2-8.4-4.5-9-9.4-1.8-8.7,5.8-10.1,6.1-2.7.5-8-2.6-11.3-2.1-1.7-17.4,25.2-24,34.9-11.5.9,1.1,4,7.1,4,8v41.5ZM300.7,184.2c-8.6,1.6-7.6,10.7,1.8,9.8s12.7-12.4-1.8-9.8Z"/>
      <polygon class="st7" points="284 172 279 179 279 171 284 172"/>
      <path class="st14" d="M661.6,167.3c3.8,4.2,4,22-2.7,24.1-15.9,4.9-15-24.6-5.4-26.4s6.3.3,8.1,2.3ZM656.9,186.9c2.6-1.7,3.8-18.1-2.9-17.9-1.6,4-3.6,6.7-3,11.4s3.1,8.4,5.9,6.5Z"/>
      <path class="st14" d="M561.9,184c3.3,11.2-16.4,13.7-14.8,4.7,1-5.6,10.4-4.7,14.8-4.7Z"/>
      <path class="st14" d="M257.7,190.7c-4.2,3.4-10.4.7-11.5-4.4s-.8-26.5,10.2-20.2,5,21.6,1.3,24.6ZM254,170c-6,.2-4.9,15.4-1.5,17s1.7-1,2-2c1.4-5,0-10.1-.5-15Z"/>
      <path class="st14" d="M300.7,184.2c14.5-2.7,9.6,9,1.8,9.8s-10.4-8.2-1.8-9.8Z"/>
      <path class="st7" d="M656.9,186.9c-2.8,1.8-5.6-4.2-5.9-6.5-.6-4.7,1.4-7.4,3-11.4,6.7-.1,5.5,16.2,2.9,17.9Z"/>
      <path class="st7" d="M254,170c.5,5,1.9,10,.5,15s-.4,2.7-2,2c-3.4-1.6-4.5-16.8,1.5-17Z"/>
    </g>
    <g>
      <path class="st6" d="M206.7,46.2c10.6-2,47-1.3,58.8-.3s7.9,1.2,8.5,7.5c1.7,19.4-1.4,41.4,0,61.1,0,2-1,3.3-2.5,4.5h-68.1c-1.9-2.1-2.2-4.8-2.4-7.5-1.3-14.1-1.4-44.1,0-58,.5-4.5,1.1-6.4,5.7-7.3ZM270,51h-64v65h64V51Z"/>
      <path class="st2" d="M270,51v65h-64V51h64ZM236,55h-27v57h27v-57ZM267,55h-28v57h28v-57Z"/>
      <path class="st6" d="M267,55v57h-28v-57h28ZM263,59h-20v47.5c0,.1,1.4,1.5,1.5,1.5h17c.1,0,1.5-1.4,1.5-1.5v-47.5Z"/>
      <path class="st6" d="M236,55v57h-27v-57h27ZM232,59h-19v49h17.5c.1,0,1.5-1.4,1.5-1.5v-47.5Z"/>
      <path class="st13" d="M263,59v47.5c0,.1-1.4,1.5-1.5,1.5h-17c-.1,0-1.5-1.4-1.5-1.5v-47.5h20Z"/>
      <path class="st13" d="M232,59v47.5c0,.1-1.4,1.5-1.5,1.5h-17.5v-49h19Z"/>
    </g>
  </g>
</svg>