<?xml version="1.0" encoding="UTF-8"?>
<svg id="Layer_1" xmlns="http://www.w3.org/2000/svg" version="1.1" viewBox="0 0 1000 1000">
  <!-- Generator: Adobe Illustrator 29.6.0, SVG Export Plug-In . SVG Version: 2.1.1 Build 207)  -->
  <defs>
    <style>
      .st0 {
        fill: #151009;
      }

      .st1 {
        fill: #9b7c5f;
      }

      .st2 {
        fill: #eed29f;
      }

      .st3 {
        fill: #9a4500;
      }

      .st4 {
        fill: #edbf75;
      }

      .st5 {
        fill: #bb4420;
      }

      .st6 {
        fill: #ea8b0f;
      }
    </style>
  </defs>
  <g>
    <path class="st6" d="M856.5,762.7c.6,3-1.5,1.9-3.5,2-9,.3-19.1.4-28.1,0s-4,1-3.5-2c11.6,0,23.3-.1,35,0Z"/>
    <path class="st6" d="M864.5,762.7c1,0,2,0,3,0,0,.7,0,1.3,0,2h-3s0-2,0-2Z"/>
    <g>
      <g>
        <path class="st0" d="M867.5,794.7h32v31h29.5c.4,0,1.6,1,2.3,1.2l.2,1.3v171.5h-32.1v-60.4c-1.2-3.2-11.9-1-15-1.6v-14.5l-1.5-1.5h-14.5v-15.5c4.3-3.8,10.7.7,16-.5v-15h-16v-15.5c2.1-4.1,16,1.7,16-2v-15.5c2.4-1.1,15,2.6,15-.5v-30.5h-30.5c-1.4-.9-1.4-2-1.6-3.4-1-8.2.1-19.9,0-28.5Z"/>
        <path class="st0" d="M227.6,731.7c-.1,4.5.8,29.3-.9,30.6-20.7.9-41.4.2-62.1.4,0,4.5.8,30.4-.9,31.6l-31.1.4-1,1.4v28.5c-.2.5.6,1.8-.6,2-8.3,1-20.1-1.5-27.9,0s-2,.3-2.4,1.6l.9,171.3h-33c1.2-56.9-1.7-114.1,0-171,0-1,0-2,0-3,1.1-.9,24.3.6,28.6,0s2.6-.1,3.4-1.6v-29.5c10.4-1.5,20.5-.2,31,0v-29.5c9.3-4.3,22.4-2.4,33-2.5,0-4.4-.8-29.7,1.1-30.9h61.8Z"/>
        <path class="st6" d="M387.6,668.7h62.5l1.5,1.5v30.5h191.5l1.5-1.5v-30.5h28.5c.3,0,1.5,1.3,2.5,1v61h-32v32l-224,1,.8-29.7-1.3-2.3h-63.5v-31.5l-1.5-1.5h-29.5v-124.5l1.5-1.5h28l1.5,1.5v61l1.5,1.5h29l1.5,1.5v30.5Z"/>
        <g>
          <path class="st6" d="M259.6,699.7c21.3-.1,42.6,0,63.8.1,1.7,1.1,1.3,20.8,1.2,24.4s-2.3,8.5.5,8.5h29l1.5,1.5v29.5h61.5c.3,0,1.5,1.3,2.5,1v31h65c2.6,16-.3,14.4-15,14v16.5c3.8,3.1,10.3.8,15,1.5v46.5c.7.9,1,1.3,2.3,1.3,4.1.1,10.2-1.8,14.7-.8.6-3.7-1.2-11.9.9-14.6s10,1.2,14.1-1.4v-15.5l-1.6-1.4-13.4.9v-14.5c0-3.5,12.9,2.1,15-2v-15l-1.6-1.4-13.4.9v-15h140.5l1.5-1.5v-30.5h30.5l1.5-1.5v-29.5h64v30c21.3,0,42.7,0,64,0,0,4.5-.8,30.4.9,31.6l63.1-.6c0,.3,0,.7,0,1,0,8.7-1,20.4,0,28.5s.1,2.6,1.6,3.4h30.5v30.5c0,3.1-12.6-.6-15,.5v15.5c0,3.7-13.9-2.1-16,2v15.5h16v15c-5.3,1.2-11.7-3.3-16,.5v15.5h14.5l1.5,1.5v14.5c3,.6,13.8-1.5,14.9,1.6v60.4c.1,0-14.9,0-14.9,0l-.9-14.6c-2.8-.4-14.4-1.3-15.6.5l-.4,14.1h-15l-.5-60c-.2-.5-1.8-2-2-2h-30.5l-1,62h-221c.6-4.4-1.6-10.5,1.5-14h14.5v-15h-16v-16h-17v14.5c-3.5,3.1-9.6.9-14,1.5v15l13.1.4.9,13.6h-143l-1-13h-16v13h-65v-14h-15v-16h15v-15c-4.7-.7-11.2,1.6-15-1.5v-15.5c-5.9,1-11.1,1.6-17,0v14.5c-1.7,3.2-13.1.6-14,1.5v16s13.1.4,13.1.4l.5,14.6-14.6.9v14s-16,0-16,0c-2.2-8.4.4-19.7-1-27.5s-.5-1.9-1.5-2.5h-30.5v-14.5c0-2.7-12.3.3-15-1.5v-15c4.7-.7,11.2,1.6,15-1.5v-15.5h-15v-14.5l-1.5-1.5h-15.5v16h-15v17h14.5c3.2,0-.4,12.6.5,15-4.4,1.5-9.3-.7-13.4,0-4.5.8-1.3,4.4-1.4,7.5s-2.5,9.5.4,9.5h14.5v14.5l1.7,1.3c4.8-.3,11.5,1.7,15.3-1.3v-14.5h15v29H101.6l-.9-171.3c.3-1.3,1.2-1.4,2.4-1.6,7.8-1.4,19.6,1,27.9,0,1.2-.2.4-1.5.6-2,3-7.4-.1-21.5,1-30l31.1-.4c1.7-1.2.9-27.1.9-31.6,20.7-.2,41.4.5,62.1-.4,1.8-1.2.8-26.1.9-30.6s1-.9,1-1c-.6,3,1.5,1.9,3.5,2,9.3.4,18.6-.9,27.5-1,0,4.7,0,9.3,0,14h-15v17l14.6.9c2.1,3-1.9,16.1.9,16.1h31.5v-15.5l-1.5-1.5h-14.5v-15h15.5c2.5-1.8,2-14.6.6-15.6-7.6-1.6-15.1.5-22.6.6-3.2,0-6.1-1.1-9.5-1.1.1-10.6,0-21.3,0-32ZM724.5,795.7h15.5c2.3-1.6,2-14.8,1.1-16.1l-15.6-1.4c-2.7-1.9,1.1-12.1-2.4-14.6h-15.5l.6,14.1-14.6,1.4-.5,15.6,15.1,1.9.4,14.1-16-1v17h16l-.6,16c1.1,1.4,14.7,1.9,16.6-.5v-15.5h15.5c.4,0,1.7-1.6,1.5-2.4l-1.9-14.2-15,.6v-15ZM212.6,795.7h-17l-.9,14.6-14.1.4v16l14.1.4.5,13.6-14.6.9v15.5c2,3.9,15-2.1,15,3v14.5h17v-17h16v-16h-16v-16h15v-15h-15v-15ZM340.6,825.7v-14.5c0-2.8-14.3.6-17-.5v15h-16c1,6.4,1,11.6,0,18h14.5c2.2,1.8,2.1,9.8,1,12-2.3,4.8-13.3,0-15.5,1.4s0,6.7.1,9.1-2.9,6.4,1.6,8.3l13.3-.8v17h16.5c2.8,0-1.1-13.1.9-16.1l14.6-.4,2-15.9c-.4-2.4-14.3.3-17.1-.6v-14h15.5c2.3-1.7,2-15.7,1.1-17.1l-15.6-.9ZM803.5,810.7c-5-.2-10,.2-15,0v31h-15v16c4.7.7,11.2-1.6,15,1.5v15.5h17v-17h14v-16c-3.6-.6-11.7,1.3-14-1v-30c-.7,0-1.3,0-2,0ZM597.6,826.7h-17l-.4,14.1-13.6.9v15l14,1-.4,14.1-13.6.9v16c15.8-1.7,14.5,2,14,16l17,1v-16h16v-17h-16v-15h16v-16h-16v-15ZM420.6,857.7l-16,1-.4,14.1-14.6.9v15h14c1.5,5.5,1.5,11.5,0,17h-14v16l13.3-1c.7.2,1.7,2.3,1.7,2.5v14.5c5.5-.7,10.5-1.9,16,0v-17h16v-16l-16,1v-17h16v-15h-16v-16ZM164.6,889.7h-14.5c-4.4-3.7,1.7-12.1-2-15.1l-15.6-.5-1.1,15.5c-2.3,1.4-10-.8-12.6-.7s-1.5.4-2.3,1.3v15.5l14.1.4c1.3,2.3,2.8,15,.3,15.6-2.7,1-13.8-1.8-14.9-.1-2.1,3.3,1.5,11.9-.5,16h16v14.5c0,.2,1.1,2.5,1.6,2.6,3.2-2.4,13.3.4,14.9-.9,2.9-2.4-.8-12,.5-16.1h15.5l1.4-1.6c-2.3-3.4,2.4-15.1-3.2-15.2-2.1,0-12.7,1.8-13.7.7,1.5-2.6-1.2-16,1.5-16h14.5v-16ZM516.6,905.7h-17l.6,15c-2.3,3.2-15.6-1.7-15.6,1.5v15c2.7,3.5,12.4.1,14.9,1.6-.2,4.1,3.2,14.5-1.6,15.8l-13.3-.9v15.5c3.8,3.1,10.3.8,15,1.5v16c3.2-1,18,2.3,18-1.5v-14.5h14.5c2.7,0,.6-5.4.7-6.5.2-2.8,1.6-5.8.6-8.8l-1.3-1.7h-15.5l1-15h14.5l1.5-1.5v-15c0-3.1-13,1.2-16.1-.9l-.9-15.6ZM772.5,906.7v14.5c-3.8,3.1-10.3.8-15,1.5v15h15v14.5c-3.8,3.1-10.3.8-15,1.5v16h14l1,16h17v-17h15v-15h-15v-16h15v-15h-15l-1-17-16,1Z"/>
          <path class="st0" d="M259.6,999.7v-29h-15v14.5c-3.8,3-10.6,1.1-15.3,1.3l-1.7-1.3v-14.5h-14.5c-2.9,0-.5-7.7-.4-9.5.1-3-3.1-6.7,1.4-7.5,4.2-.8,9,1.5,13.4,0-.9-2.3,2.8-15-.5-15h-14.5v-17h15v-16h15.5l1.5,1.5v14.5h15v15.5c-3.8,3.1-10.3.8-15,1.5v15c2.7,1.8,15-1.2,15,1.5v14.5h30.5c1,.6,1.3,1.4,1.5,2.5,1.4,7.8-1.2,19.1,1,27.5h-33Z"/>
          <path class="st0" d="M852.5,999.7h-34l1-62h30.5c.2,0,1.8,1.5,2,2l.5,60Z"/>
          <path class="st4" d="M308.6,999.7v-14s14.6-.9,14.6-.9l-.5-14.6-13.1-.4v-16c.9-.9,12.3,1.7,14-1.5v-14.5c5.9,1.6,11.1,1,17,0v15.5c3.8,3.1,10.3.8,15,1.5v15h-15v16h15v14h-47Z"/>
          <path class="st4" d="M580.6,999.7l-.9-13.6-13.1-.4v-15c4.4-.6,10.5,1.6,14-1.5v-14.5h17v16h16v15h-14.5c-3.1,3.5-.9,9.6-1.5,14h-17Z"/>
          <path class="st0" d="M884.5,999.7h-17l.4-14.1c1.3-1.8,12.8-.9,15.6-.5l.9,14.6Z"/>
          <polygon class="st0" points="420.6 999.7 420.6 986.7 436.6 986.7 437.6 999.7 420.6 999.7"/>
          <path class="st0" d="M516.6,905.7l.9,15.6c3,2.1,16.1-2.2,16.1.9v15l-1.5,1.5h-14.5l-1,15h15.5l1.3,1.7c1,3.1-.5,6-.6,8.8s2,6.5-.7,6.5h-14.5v14.5c0,3.8-14.8.5-18,1.5v-16c-4.7-.7-11.2,1.6-15-1.5v-15.5l13.3.9c4.8-1.3,1.4-11.7,1.6-15.8-2.5-1.5-12.2,1.9-14.9-1.6v-15c0-3.1,13.2,1.8,15.6-1.5l-.6-15h17Z"/>
          <path class="st0" d="M340.6,825.7l15.6.9c.9,1.3,1.2,15.4-1.1,17.1h-15.5v14c2.8.9,16.7-1.8,17.1.6l-2,15.9-14.6.4c-2.1,3,1.9,16.1-.9,16.1h-16.5v-17l-13.3.8c-4.5-1.9-1.5-5.2-1.6-8.3s-1.7-8-.1-9.1c2.3-1.5,13.2,3.4,15.5-1.4s1.2-10.2-1-12h-14.5c1-6.3,1-11.6,0-18h16v-15c2.7,1.1,17-2.3,17,.5v14.5Z"/>
          <path class="st0" d="M164.6,889.7v16h-14.5c-2.7,0,0,13.3-1.5,16,1,1,11.6-.8,13.7-.7,5.6,0,.9,11.7,3.2,15.2l-1.4,1.6h-15.5c-1.3,4.2,2.5,13.7-.5,16.1s-11.7-1.5-14.9.9c-.6,0-1.6-2.4-1.6-2.6v-14.5h-16c2-4.2-1.7-12.7.5-16s12.2,1.1,14.9.1c2.5-.7,1-13.4-.3-15.6l-14.1-.4v-15.5c.7-.9,1-1.3,2.3-1.3,2.6,0,10.3,2.1,12.6.7l1.1-15.5,15.6.5c3.6,3-2.4,11.5,2,15.1h14.5Z"/>
          <path class="st0" d="M724.5,795.7v15l15-.6,1.9,14.2c.2.8-1,2.4-1.5,2.4h-15.5v15.5c-1.9,2.5-15.5,2-16.6.5l.6-16h-16v-17l16,1-.4-14.1-15.1-1.9.5-15.6,14.6-1.4-.6-14.1h15.5c3.5,2.5-.2,12.7,2.4,14.6l15.6,1.4c.9,1.3,1.2,14.4-1.1,16.1h-15.5Z"/>
          <path class="st4" d="M212.6,795.7v15h15v15h-15v16h16v16h-16v17h-17v-14.5c0-5.1-13,.9-15-3v-15.5l14.6-.9-.5-13.6-14.1-.4v-16l14.1-.4.9-14.6h17Z"/>
          <path class="st4" d="M597.6,826.7v15h16v16h-16v15h16v17h-16v16l-17-1c.5-14,1.8-17.7-14-16v-16s13.6-.9,13.6-.9l.4-14.1-14-1v-15l13.6-.9.4-14.1h17Z"/>
          <path class="st4" d="M772.5,906.7l16-1,1,17h15v15h-15v16h15v15h-15v17h-17l-1-16h-14v-16c4.7-.7,11.2,1.6,15-1.5v-14.5h-15v-15c4.7-.7,11.2,1.6,15-1.5v-14.5Z"/>
          <path class="st4" d="M420.6,857.7v16h16v15h-16v17l16-1v16h-16v17c-5.5-1.9-10.5-.7-16,0v-14.5c0-.3-1-2.3-1.7-2.5l-13.3,1v-16h14c1.5-5.5,1.5-11.5,0-17h-14v-15l14.6-.9.4-14.1,16-1Z"/>
          <path class="st4" d="M803.5,810.7c2.8,5.4-1,27,2,30s10.4.4,14,1v16h-14v17h-17v-15.5c-3.8-3.1-10.3-.8-15-1.5v-16h15v-31c5,.2,10-.2,15,0Z"/>
          <path class="st2" d="M803.5,810.7c.7,0,1.3,0,2,0v30c-3-3,.8-24.6-2-30Z"/>
          <path class="st1" d="M131.6,824.7v-28.5s1-1.4,1-1.4c-1.1,8.5,2,22.5-1,30Z"/>
        </g>
      </g>
      <g>
        <g>
          <path class="st0" d="M259.6,699.7c0-8.7-1-20.4,0-28.5s.1-2.6,1.6-3.4h29l1.5-1.5v-92c1.1-1.3,3-2.1,4.6-2.2,6-.4,14.2,1.2,20.9.7s4.3-.9,6.5-1v-61.5l-1.5-1.5h-29l-1.5-1.5v-28l-1.5-1.5h-29l-1.5-1.5v-126.5h-29.5c-.3,0-1.5-1.3-2.5-1v-189c1,.3,2.2-1,2.5-1h29.5v-62c1,.3,2.2-1,2.5-1h29.5v-29.5c0-.3,1.3-1.5,1-2.5h31c-.9-5.6,1-11.3,1.1-16.5s-3.3-11.4.4-15.5h62.5V2.3l1.5-1.5h251c.5,0,2.2,1.5,3.5,1v30h62.5c1,.6,1.3,1.4,1.5,2.5.9,4.9.2,16.4,0,22s-2.1,7.5.5,7.5h32.5v32h31v31h29.5c.3,0,1.5,1.3,2.5,1v158h30.5c.2,0,2.5,2.3,2.5,2.5v93.5h-33v158.5l-1.5,1.5h-30.5v62.5l-1.5,1.5h-29.5v32h-31.5l-1.5,1.5v61.5h32v29.5l1.5,1.5h61c1.4.9,1.4,2,1.6,3.4.9,7.9-.1,19.1,0,27.5,6,0,12,0,18,0-.6,3,1.5,1.9,3.5,2,9,.4,19.1.3,28.1,0,1.9,0,4,1,3.5-2,2.6,0,5.4-.2,8,0v2s3,0,3,0c1,8.5,0,20.1,0,29l-63.1.6c-1.7-1.2-.9-27.1-.9-31.6-21.3,0-42.7,0-64,0v-30h-64v29.5l-1.5,1.5h-30.5v30.5l-1.5,1.5h-140.5v15l13.4-.9,1.6,1.4v15c-2.1,4.1-15-1.5-15,2v14.5l13.4-.9,1.6,1.4v15.5c-4.1,2.6-11.3-2.2-14.1,1.4s-.3,10.9-.9,14.6c-4.6-1-10.7.9-14.7.8s-1.5-.4-2.3-1.3v-46.5c-4.7-.7-11.2,1.6-15-1.5v-16.5c14.7.4,17.6,2,15-14h-65v-31c-1,.3-2.2-1-2.5-1h-61.5v-29.5l-1.5-1.5h-29c-2.7,0-.5-6.8-.5-8.5.1-3.6.5-23.3-1.2-24.4-21.3-.1-42.6-.3-63.8-.1,0,10.6.1,21.3,0,32,3.4,0,6.3,1.1,9.5,1.1,7.5-.1,15-2.3,22.6-.6,1.4,1,1.9,13.8-.6,15.6h-15.5v15h14.5l1.5,1.5v15.5h-31.5c-2.8,0,1.1-13.1-.9-16.1l-14.6-.9v-17h15c0-4.7,0-9.3,0-14-9,.1-18.2,1.4-27.5,1-1.9,0-4,1-3.5-2,.3-9.9-.3-19.9.1-29.9,1.2-1.9,26.4-1.1,30.9-1.1ZM770.5,159.8h-319v93.5l-1.5,1.5h-28.5v61l29-.4c4.5-3.4,0-30.4,1.5-30.6h156.9c4.5.8,1.6,5.3,1.5,8.5s-1.3,22,2.7,23.4l60.3-.4c.5-.2,2-1.8,2-2v-29.5c32-.8,64.2,3,96,0,.4-1-1-2.1-1-2.5v-122.5ZM292.6,475.7h63v-29h-32v-63.5c0-.3-1.4-1.4-1-2.5h32.5l1.5,1.5v62.5h30.5l1.5,1.5v30.5h31.5l1.5,64c10.1-1.4,19.8.1,30,0v31h30.5l1.6,3.4v27.5s60.5,1,60.5,1l3.4,1.6v29.5c39.5.8,79.1-1,118.5,0,10.3.3,24,2.9,34,2.1s5.5-.5,7.5-2.5v-26c0-.6-1.5-2.2-1-3.5l-96-.5v-29c0-.3-1.4-1.4-1-2.5h96.5l1.4,1.6c-1.8,9.6-1,19.7,0,29.4h31v-62l32-1v-126h-63v28.5c0,.2-1.8,3.5-2,3.5h-29c-1.3,7-1.2,14.4-1,21.5s2.1,9.5-.5,9.5h-63l-1.5-1.5v-30c0-2.1,3.7-.7,4.5-.7,18.3-1.7,38.8,1.3,56.1-.7,1.5-.2,2.6-.1,3.4-1.6v-62.5c-1.1-.4-2.2,1-2.5,1h-59l-1.5,1.5v29l-1.5,1.5h-125.5v-14.5c-.6-1-1.4-1.3-2.5-1.5-5.4-1-27,1.3-29.6-.4-2.7-3,1.2-15.2-2.6-16.4-13.9,0-28-.5-41.9-.2-6.1.2-14.8,3.2-20.5-.5v-26c0-.5,1.6-2.2,1-3.5-26.7-2.9-53.6.9-80.5,0s-10.2-1.9-15.5-1v126ZM387.6,668.7v-30.5l-1.5-1.5h-29l-1.5-1.5v-61l-1.5-1.5h-28l-1.5,1.5v124.5h29.5l1.5,1.5v31.5h63.5l1.3,2.3-.8,29.7,224-1v-32h32v-61c-1,.3-2.2-1-2.5-1h-28.5v30.5l-1.5,1.5h-191.5v-30.5l-1.5-1.5h-62.5Z"/>
          <path class="st3" d="M770.5,159.8v122.5c0,.4,1.4,1.5,1,2.5-31.8,3-64-.8-96,0v29.5c0,.2-1.5,1.8-2,2l-60.3.4c-4-1.3-2.8-19.2-2.7-23.4s3-7.7-1.5-8.5h-156.9c-1.5.2,3,27.2-1.5,30.6l-29,.4v-61h28.5l1.5-1.5v-93.5h319Z"/>
        </g>
        <g>
          <path class="st3" d="M292.6,475.7v-126c5.2-.9,10.6.9,15.5,1,26.9.9,53.9-3,80.5,0,.6,1.3-1,2.9-1,3.5v26c5.6,3.7,14.3.6,20.5.5,13.9-.4,28,.2,41.9.2,3.7,1.2,0,13.5,2.6,16.4,2.6,1.8,24.2-.5,29.6.4s1.9.5,2.5,1.5v14.5h125.5l1.5-1.5v-29l1.5-1.5h59c.3,0,1.4-1.4,2.5-1v62.5c-.9,1.4-2,1.4-3.4,1.6-17.3,2-37.8-1-56.1.7-.8,0-4.5-1.4-4.5.7v30l1.5,1.5h63c2.6,0,.5-7.5.5-9.5-.2-7.2-.3-14.5,1-21.5h29c.2,0,2-3.3,2-3.5v-28.5h63v126l-32,1v62h-31c-1.1-9.7-1.9-19.7,0-29.4l-1.4-1.6h-96.5c-.4,1.1,1,2.2,1,2.5v29l96,.5c-.4,1.3,1,2.9,1,3.5v26c-1.9,2.1-4.8,2.3-7.5,2.5-10,.8-23.7-1.8-34-2.1-39.5-1-79.1.8-118.5,0v-29.5l-3.4-1.6-60.5-1v-27.5s-1.5-3.4-1.5-3.4h-30.5v-31c-10.2.2-19.9-1.4-30,0l-1.5-64h-31.5v-30.5l-1.5-1.5h-30.5v-62.5l-1.5-1.5h-32.5c-.4,1.1,1,2.2,1,2.5v63.5h32v29h-63ZM578.6,507.8v33.9h129v-33.9h-129ZM580.6,542.7v29h126v-29h-126Z"/>
          <rect class="st0" x="578.6" y="507.8" width="129" height="33.9"/>
          <rect class="st5" x="580.6" y="542.7" width="126" height="29"/>
        </g>
      </g>
    </g>
  </g>
  <path class="st0" d="M504.6,809.1l15.6.9c.9,1.3,1.2,15.4-1.1,17.1h-15.5v14c2.8.9,16.7-1.8,17.1.6l-2,15.9-14.6.4c-2.1,3,1.9,16.1-.9,16.1h-16.5v-17l-13.3.8c-4.5-1.9-1.5-5.2-1.6-8.3s-1.7-8-.1-9.1c2.3-1.5,13.2,3.4,15.5-1.4s1.2-10.2-1-12h-14.5c1-6.3,1-11.6,0-18h16v-15c2.7,1.1,17-2.3,17,.5v14.5Z"/>
</svg>